<svg version="1.1" id="Ebene_1" xmlns="http://www.w3.org/2000/svg" xmlns:xlink="http://www.w3.org/1999/xlink" x="0px" y="0px" viewBox="0 0 761.5 103.1" style="enable-background:new 0 0 761.5 103.1;" xml:space="preserve">
<style type="text/css">
	.st0{fill:#FFFFFF;}
</style>
<g>
	<path class="st0" d="M34.4,77.7L21.7,56.1l-5.5,6.2v15.4h-13V6.8h13V47l17.2-21.2h15.6L30.6,46.7l19.9,31H34.4z"></path>
	<path class="st0" d="M85.6,77.7v-4.5c-3.5,3.5-6.8,5-12.8,5c-5.9,0-10.2-1.5-13.3-4.6c-2.8-2.9-4.3-7.1-4.3-11.7
		c0-8.3,5.7-15,17.7-15h12.3v-2.6c0-5.7-2.8-8.2-9.7-8.2c-5,0-7.3,1.2-10,4.3l-8.3-8.1c5.1-5.6,10.1-7.2,18.7-7.2
		c14.5,0,22.1,6.2,22.1,18.3v34.2H85.6z M85.3,55.8H75c-4.7,0-7.3,2.2-7.3,5.9c0,3.6,2.4,6,7.5,6c3.6,0,5.9-0.3,8.2-2.5
		c1.4-1.3,1.9-3.4,1.9-6.6V55.8z"></path>
	<path class="st0" d="M140.4,40c-2-2-3.7-3.1-6.9-3.1c-4,0-8.4,3-8.4,9.6v31.3h-13V25.8h12.7v5c2.5-3,7.5-5.6,13.1-5.6
		c5.1,0,8.7,1.3,12.3,4.9L140.4,40z"></path>
	<path class="st0" d="M172.2,77.7c-10.7,0-15.1-7.5-15.1-14.8V6.8h13v55.3c0,3.1,1.3,4.7,4.6,4.7h5v11H172.2z"></path>
	<path class="st0" d="M207,78.3c-8.2,0-15.5-0.9-22.1-7.5l8.5-8.5c4.3,4.3,9.9,4.9,13.9,4.9c4.5,0,9.2-1.5,9.2-5.4
		c0-2.6-1.4-4.4-5.5-4.8l-8.2-0.8c-9.4-0.9-15.1-5-15.1-14.5c0-10.8,9.5-16.5,20-16.5c8.1,0,14.8,1.4,19.8,6.1l-8,8.1
		c-3-2.7-7.6-3.5-12.1-3.5c-5.2,0-7.4,2.4-7.4,5c0,1.9,0.8,4.1,5.4,4.5l8.2,0.8c10.3,1,15.4,6.5,15.4,15.3
		C229,72.8,219.2,78.3,207,78.3z"></path>
	<path class="st0" d="M268.1,40c-2-2-3.7-3.1-6.9-3.1c-4,0-8.4,3-8.4,9.6v31.3h-13V25.8h12.7v5c2.5-3,7.5-5.6,13.1-5.6
		c5.1,0,8.7,1.3,12.3,4.9L268.1,40z"></path>
	<path class="st0" d="M315.1,77.7v-4.8c-3.4,3.6-8.2,5.4-13,5.4c-5.2,0-9.4-1.7-12.3-4.6c-4.2-4.2-5.3-9.1-5.3-14.7V25.8h13v31.4
		c0,7.1,4.5,9.5,8.6,9.5c4.1,0,8.7-2.4,8.7-9.5V25.8h13v51.9H315.1z"></path>
	<path class="st0" d="M372.1,77.7V46c0-6.9-4.4-9.2-8.5-9.2c-4.1,0-8.4,2.4-8.4,9.2v31.7h-13V6.8h13v23.8c3.5-3.6,7.9-5.4,12.5-5.4
		c11.4,0,17.3,8,17.3,18.9v33.6H372.1z"></path>
	<path class="st0" d="M409.2,55.8c0,6.7,4.1,11.6,11.4,11.6c5.7,0,8.5-1.6,11.8-4.9l7.9,7.7c-5.3,5.3-10.4,8.2-19.7,8.2
		c-12.3,0-24-5.6-24-26.6c0-16.9,9.2-26.5,22.6-26.5c14.5,0,22.6,10.6,22.6,24.8v5.8H409.2z M427.7,41.3c-1.4-3.1-4.3-5.4-8.7-5.4
		c-4.4,0-7.3,2.3-8.7,5.4c-0.8,1.9-1.1,3.3-1.2,5.6h19.7C428.8,44.6,428.5,43.2,427.7,41.3z"></path>
	<path class="st0" d="M453.2,77.7V63H468v14.7H453.2z"></path>
	<path class="st0" d="M510.8,77.7v-4.9c-3.6,4-7.4,5.5-12.9,5.5c-5.1,0-9.9-1.8-12.8-4.7c-5.2-5.2-5.3-14.1-5.3-21.9
		c0-7.8,0.1-16.6,5.3-21.8c2.9-2.9,7.6-4.7,12.7-4.7c5.3,0,9.3,1.4,12.7,5.2V6.8h13v70.9H510.8z M501.6,36.9
		c-7.8,0-8.8,6.4-8.8,14.8c0,8.5,1,14.9,8.8,14.9c7.8,0,8.9-6.5,8.9-14.9C510.5,43.2,509.4,36.9,501.6,36.9z"></path>
	<path class="st0" d="M537.8,16.9V6.4H551v10.6H537.8z M538,77.7V25.8h13v51.9H538z"></path>
	<path class="st0" d="M583.3,97.3c-8,0-13.5-1.6-18.8-6.8l8.1-8.2c2.9,2.8,5.8,4,10.2,4c7.8,0,10.5-5.5,10.5-10.8v-5.3
		c-3.4,3.8-7.3,5.2-12.4,5.2c-5.1,0-9.5-1.7-12.4-4.6c-4.9-4.9-5.3-11.6-5.3-20.6s0.4-15.6,5.3-20.5c2.9-2.9,7.4-4.6,12.5-4.6
		c5.5,0,9.1,1.5,12.7,5.5v-4.9h12.6v50C606.1,88.3,597.3,97.3,583.3,97.3z M584.6,36.9c-7.7,0-8.5,6.6-8.5,13.5s0.8,13.6,8.5,13.6
		c7.7,0,8.6-6.7,8.6-13.6S592.3,36.9,584.6,36.9z"></path>
	<path class="st0" d="M620.5,16.9V6.4h13.3v10.6H620.5z M620.7,77.7V25.8h13v51.9H620.7z"></path>
	<path class="st0" d="M664.3,77.7c-10.6,0-15-7.5-15-14.8V37.2h-5.5v-9.9h5.5V11.9h13v15.3h9.2v9.9h-9.2v24.9c0,3,1.4,4.7,4.5,4.7
		h4.7v11H664.3z"></path>
	<path class="st0" d="M709.5,77.7v-4.5c-3.5,3.5-6.8,5-12.8,5c-5.9,0-10.2-1.5-13.3-4.6c-2.8-2.9-4.3-7.1-4.3-11.7
		c0-8.3,5.7-15,17.7-15h12.3v-2.6c0-5.7-2.8-8.2-9.7-8.2c-5,0-7.3,1.2-10,4.3l-8.3-8.1c5.1-5.6,10.1-7.2,18.7-7.2
		c14.5,0,22.1,6.2,22.1,18.3v34.2H709.5z M709.2,55.8h-10.3c-4.7,0-7.3,2.2-7.3,5.9c0,3.6,2.4,6,7.5,6c3.6,0,5.9-0.3,8.2-2.5
		c1.4-1.3,1.9-3.4,1.9-6.6V55.8z"></path>
	<path class="st0" d="M750.8,77.7c-10.7,0-15.1-7.5-15.1-14.8V6.8h13v55.3c0,3.1,1.3,4.7,4.6,4.7h5v11H750.8z"></path>
</g>
</svg>